<svg xmlns="http://www.w3.org/2000/svg" viewBox="0 0 321.25 321.25">
<path d="M160.625,0C72.056,0,0,72.056,0,160.625S72.056,321.25,160.625,321.25S321.25,249.194,321.25,160.625S249.194,0,160.625,0z
	 M306.059,153.125h-72.18c-0.485-23.975-3.3-46.999-8.181-67.7c5.557-2.057,10.993-4.38,16.262-6.995
	c3.71-1.841,5.226-6.342,3.384-10.052c-1.842-3.71-6.341-5.227-10.052-3.384c-4.38,2.174-8.889,4.128-13.493,5.88
	c-2.283-7.587-4.854-14.791-7.733-21.486c-5.209-12.116-11.185-22.155-17.732-29.952C257.09,34.809,302.763,88.464,306.059,153.125z
	 M222.345,248.579c12.671,5.272,24.505,12.202,35.166,20.662c-17.224,15.38-38.112,26.736-61.177,32.573
	c6.547-7.797,12.523-17.835,17.732-29.952C217.173,264.638,219.933,256.835,222.345,248.579z M200.286,265.938
	c-11.014,25.619-25.47,40.312-39.661,40.312s-28.647-14.693-39.661-40.312c-2.979-6.93-5.625-14.438-7.923-22.414
	c15.143-4.643,31.19-7.066,47.584-7.066c16.455,0,32.485,2.415,47.592,7.04C205.917,251.484,203.269,259.001,200.286,265.938z
	 M107.184,271.863c5.209,12.116,11.185,22.155,17.732,29.952c-23.067-5.837-43.955-17.193-61.18-32.575
	c10.651-8.438,22.503-15.353,35.179-20.624C101.325,256.858,104.082,264.648,107.184,271.863z M160.625,221.458
	c-17.634,0-34.915,2.574-51.263,7.51c-4.135-18.677-6.541-39.317-6.992-60.843H218.88c-0.451,21.514-2.854,42.143-6.985,60.811
	C195.585,224.021,178.322,221.458,160.625,221.458z M102.37,153.125c0.486-23.177,3.237-45.328,7.977-65.104
	c17.111,5.472,35.324,8.322,54.017,8.322c15.984,0,31.852-2.164,47.025-6.322c4.448,19.262,7.021,40.709,7.49,63.103H102.37z
	 M100.262,68.205C88.54,63.092,77.565,56.546,67.61,48.665c16.446-13.687,35.943-23.824,57.306-29.229
	c-6.547,7.797-12.523,17.835-17.732,29.952C104.644,55.295,102.339,61.595,100.262,68.205z M120.964,55.312
	C131.978,29.693,146.434,15,160.625,15s28.647,14.693,39.661,40.312c2.702,6.284,5.115,13.063,7.258,20.215
	c-13.918,3.826-28.49,5.818-43.18,5.818c-17.352,0-34.233-2.682-50.055-7.813C116.301,67.114,118.514,61.009,120.964,55.312z
	 M15,160.625c0-39.517,15.829-75.401,41.47-101.664c11.996,9.788,25.373,17.784,39.725,23.83
	c-5.274,21.375-8.319,45.334-8.825,70.335H42.625c-4.142,0-7.5,3.358-7.5,7.5s3.358,7.5,7.5,7.5h44.746
	c0.471,23.255,3.129,45.621,7.742,65.835c-15.253,6.119-29.462,14.409-42.108,24.667C29.408,232.737,15,198.333,15,160.625z
	 M268.252,258.62c-12.663-10.286-26.86-18.574-42.108-24.693c4.609-20.206,7.265-42.56,7.735-65.803h72.18
	C304.287,202.881,290.271,234.458,268.252,258.62z"/>
</svg>
